%FSLAX24Y24*%
%MOIN*%
G70*
G01*
G75*
G04 Layer_Physical_Order=2*
G04 Layer_Color=16711680*
%ADD10R,0.0720X0.1100*%
%ADD11O,0.0720X0.1100*%
%ADD12R,0.1100X0.0720*%
%ADD13O,0.1100X0.0720*%
%ADD14O,0.0900X0.0720*%
%ADD15O,0.0720X0.0900*%
G04:AMPARAMS|DCode=16|XSize=70.9mil|YSize=110.2mil|CornerRadius=0mil|HoleSize=0mil|Usage=FLASHONLY|Rotation=135.000|XOffset=0mil|YOffset=0mil|HoleType=Round|Shape=Rectangle|*
%AMROTATEDRECTD16*
4,1,4,0.0640,0.0139,-0.0139,-0.0640,-0.0640,-0.0139,0.0139,0.0640,0.0640,0.0139,0.0*
%
%ADD16ROTATEDRECTD16*%

G04:AMPARAMS|DCode=17|XSize=70.9mil|YSize=110.2mil|CornerRadius=0mil|HoleSize=0mil|Usage=FLASHONLY|Rotation=135.000|XOffset=0mil|YOffset=0mil|HoleType=Round|Shape=Round|*
%AMOVALD17*
21,1,0.0394,0.0709,0.0000,0.0000,225.0*
1,1,0.0709,0.0139,0.0139*
1,1,0.0709,-0.0139,-0.0139*
%
%ADD17OVALD17*%

%ADD18R,0.0600X0.0600*%
%ADD19C,0.0600*%
%ADD20C,0.0500*%
%ADD21C,0.0300*%
%ADD22C,0.0394*%
%ADD23C,0.0295*%
%ADD24C,0.0256*%
%ADD25C,0.0250*%
G36*
X36551Y33319D02*
X36647Y33308D01*
X36735Y33287D01*
X36776Y33278D01*
X36811Y33267D01*
X36846Y33255D01*
X36876Y33246D01*
X36902Y33235D01*
X36923Y33226D01*
X36940Y33220D01*
X36952Y33214D01*
X36961Y33208D01*
X36964D01*
X37043Y33158D01*
X37113Y33103D01*
X37174Y33047D01*
X37224Y32989D01*
X37262Y32939D01*
X37277Y32918D01*
X37289Y32898D01*
X37300Y32883D01*
X37306Y32868D01*
X37309Y32863D01*
X37312Y32860D01*
X37353Y32772D01*
X37382Y32681D01*
X37403Y32596D01*
X37418Y32514D01*
X37423Y32479D01*
X37426Y32447D01*
X37429Y32417D01*
Y32391D01*
X37432Y32370D01*
Y32356D01*
Y32347D01*
Y32344D01*
X37429Y32268D01*
X37420Y32192D01*
X37409Y32124D01*
X37394Y32063D01*
X37388Y32037D01*
X37382Y32010D01*
X37377Y31990D01*
X37371Y31972D01*
X37365Y31957D01*
X37362Y31946D01*
X37359Y31940D01*
Y31937D01*
X37327Y31864D01*
X37292Y31791D01*
X37254Y31726D01*
X37218Y31668D01*
X37183Y31618D01*
X37172Y31597D01*
X37157Y31580D01*
X37148Y31565D01*
X37139Y31556D01*
X37136Y31550D01*
X37133Y31547D01*
X36419D01*
Y32362D01*
X36644D01*
Y31796D01*
X37008D01*
X37034Y31832D01*
X37060Y31870D01*
X37084Y31908D01*
X37104Y31946D01*
X37122Y31981D01*
X37133Y32010D01*
X37139Y32022D01*
X37142Y32031D01*
X37145Y32034D01*
Y32037D01*
X37166Y32095D01*
X37180Y32154D01*
X37192Y32209D01*
X37198Y32256D01*
X37204Y32297D01*
X37207Y32329D01*
Y32341D01*
Y32350D01*
Y32356D01*
Y32359D01*
X37204Y32429D01*
X37195Y32496D01*
X37180Y32555D01*
X37166Y32611D01*
X37151Y32655D01*
X37142Y32675D01*
X37136Y32690D01*
X37133Y32701D01*
X37128Y32710D01*
X37125Y32716D01*
Y32719D01*
X37090Y32778D01*
X37049Y32830D01*
X37005Y32874D01*
X36964Y32909D01*
X36925Y32936D01*
X36896Y32956D01*
X36885Y32965D01*
X36876Y32971D01*
X36870Y32974D01*
X36867D01*
X36797Y33003D01*
X36726Y33024D01*
X36653Y33041D01*
X36583Y33050D01*
X36554Y33053D01*
X36524Y33056D01*
X36498Y33059D01*
X36477D01*
X36457Y33062D01*
X36433D01*
X36357Y33059D01*
X36284Y33050D01*
X36220Y33038D01*
X36161Y33024D01*
X36114Y33012D01*
X36094Y33006D01*
X36079Y33000D01*
X36064Y32994D01*
X36056Y32991D01*
X36050Y32989D01*
X36047D01*
X36009Y32971D01*
X35974Y32953D01*
X35941Y32933D01*
X35912Y32912D01*
X35889Y32895D01*
X35871Y32880D01*
X35859Y32871D01*
X35856Y32868D01*
X35824Y32836D01*
X35798Y32804D01*
X35774Y32769D01*
X35754Y32737D01*
X35736Y32707D01*
X35725Y32684D01*
X35719Y32669D01*
X35716Y32663D01*
X35698Y32614D01*
X35684Y32564D01*
X35675Y32511D01*
X35666Y32464D01*
X35663Y32423D01*
X35660Y32391D01*
Y32379D01*
Y32370D01*
Y32365D01*
Y32362D01*
X35663Y32309D01*
X35669Y32259D01*
X35678Y32215D01*
X35687Y32177D01*
X35695Y32145D01*
X35704Y32119D01*
X35710Y32104D01*
X35713Y32098D01*
X35733Y32054D01*
X35754Y32019D01*
X35777Y31987D01*
X35798Y31960D01*
X35818Y31940D01*
X35833Y31925D01*
X35845Y31916D01*
X35848Y31914D01*
X35883Y31890D01*
X35921Y31870D01*
X35959Y31852D01*
X35994Y31837D01*
X36029Y31826D01*
X36056Y31814D01*
X36073Y31811D01*
X36076Y31808D01*
X36079D01*
X36015Y31577D01*
X35944Y31597D01*
X35883Y31621D01*
X35830Y31644D01*
X35786Y31668D01*
X35748Y31691D01*
X35722Y31709D01*
X35707Y31720D01*
X35701Y31723D01*
X35657Y31761D01*
X35622Y31805D01*
X35590Y31849D01*
X35564Y31893D01*
X35540Y31931D01*
X35525Y31960D01*
X35520Y31972D01*
X35517Y31981D01*
X35514Y31987D01*
Y31990D01*
X35490Y32054D01*
X35473Y32119D01*
X35461Y32183D01*
X35452Y32239D01*
X35446Y32288D01*
Y32312D01*
X35443Y32329D01*
Y32344D01*
Y32356D01*
Y32362D01*
Y32365D01*
X35449Y32470D01*
X35461Y32564D01*
X35482Y32652D01*
X35493Y32690D01*
X35502Y32725D01*
X35514Y32757D01*
X35525Y32786D01*
X35534Y32813D01*
X35546Y32833D01*
X35552Y32848D01*
X35558Y32863D01*
X35564Y32868D01*
Y32871D01*
X35587Y32912D01*
X35613Y32948D01*
X35669Y33018D01*
X35728Y33073D01*
X35786Y33123D01*
X35842Y33158D01*
X35862Y33173D01*
X35883Y33188D01*
X35900Y33196D01*
X35912Y33202D01*
X35921Y33208D01*
X35924D01*
X36015Y33246D01*
X36108Y33276D01*
X36196Y33296D01*
X36278Y33311D01*
X36313Y33317D01*
X36346Y33319D01*
X36375Y33322D01*
X36401D01*
X36422Y33325D01*
X36448D01*
X36551Y33319D01*
D02*
G37*
G36*
X37400Y30874D02*
X35476D01*
Y31129D01*
X37400D01*
Y30874D01*
D02*
G37*
G36*
Y34995D02*
X36817Y34787D01*
Y33979D01*
X37400Y33756D01*
Y33469D01*
X35476Y34251D01*
Y34529D01*
X37400Y35264D01*
Y34995D01*
D02*
G37*
G36*
Y37054D02*
X35763D01*
X37400Y36500D01*
Y36272D01*
X35789Y35710D01*
X37400D01*
Y35464D01*
X35476D01*
Y35809D01*
X36814Y36269D01*
X36887Y36292D01*
X36949Y36316D01*
X37002Y36333D01*
X37046Y36345D01*
X37078Y36357D01*
X37101Y36366D01*
X37116Y36369D01*
X37122Y36372D01*
X37084Y36383D01*
X37037Y36398D01*
X36990Y36413D01*
X36943Y36427D01*
X36902Y36442D01*
X36870Y36454D01*
X36855Y36456D01*
X36846Y36459D01*
X36841Y36462D01*
X36838D01*
X35476Y36919D01*
Y37300D01*
X37400D01*
Y37054D01*
D02*
G37*
%LPC*%
G36*
X36609Y34714D02*
X36047Y34503D01*
X35979Y34479D01*
X35912Y34459D01*
X35851Y34441D01*
X35792Y34427D01*
X35745Y34415D01*
X35725Y34409D01*
X35707Y34403D01*
X35692Y34400D01*
X35684D01*
X35678Y34397D01*
X35675D01*
X35739Y34377D01*
X35807Y34356D01*
X35874Y34333D01*
X35938Y34309D01*
X35994Y34292D01*
X36018Y34283D01*
X36038Y34274D01*
X36056Y34268D01*
X36067Y34263D01*
X36076Y34260D01*
X36079D01*
X36609Y34061D01*
Y34714D01*
D02*
G37*
%LPD*%
D10*
X35350Y29450D02*
D03*
Y26650D02*
D03*
Y43300D02*
D03*
X37300Y45050D02*
D03*
X41350Y39950D02*
D03*
D11*
X37350Y29450D02*
D03*
X36350D02*
D03*
X38350D02*
D03*
X39350D02*
D03*
X40350D02*
D03*
X41350D02*
D03*
Y26650D02*
D03*
X40350D02*
D03*
X39350D02*
D03*
X38350D02*
D03*
X36350D02*
D03*
X37350D02*
D03*
X41350Y43300D02*
D03*
X40350D02*
D03*
X39350D02*
D03*
X38350D02*
D03*
X36350D02*
D03*
X37350D02*
D03*
X38300Y45050D02*
D03*
X39300D02*
D03*
X40300D02*
D03*
X41300D02*
D03*
X42300D02*
D03*
X39350Y39950D02*
D03*
X40350D02*
D03*
X38350D02*
D03*
X37350D02*
D03*
X36350D02*
D03*
X35350D02*
D03*
D12*
X33100Y37700D02*
D03*
X43600Y31700D02*
D03*
X30250Y37700D02*
D03*
X46650Y31700D02*
D03*
D13*
X33100Y35700D02*
D03*
Y36700D02*
D03*
Y34700D02*
D03*
Y33700D02*
D03*
Y32700D02*
D03*
Y31700D02*
D03*
X43600Y33700D02*
D03*
Y32700D02*
D03*
Y34700D02*
D03*
Y35700D02*
D03*
Y36700D02*
D03*
Y37700D02*
D03*
X30250Y31700D02*
D03*
Y32700D02*
D03*
Y33700D02*
D03*
Y34700D02*
D03*
Y36700D02*
D03*
Y35700D02*
D03*
X46650Y37700D02*
D03*
Y36700D02*
D03*
Y35700D02*
D03*
Y34700D02*
D03*
Y32700D02*
D03*
Y33700D02*
D03*
D14*
X40467Y24650D02*
D03*
Y23650D02*
D03*
X38333Y24650D02*
D03*
Y23650D02*
D03*
X36200Y24650D02*
D03*
Y23650D02*
D03*
X34067Y24650D02*
D03*
Y23650D02*
D03*
X31933Y24650D02*
D03*
Y23650D02*
D03*
X29800Y24650D02*
D03*
Y23650D02*
D03*
X42600Y24650D02*
D03*
Y23650D02*
D03*
D15*
X27900Y26200D02*
D03*
X26900D02*
D03*
X27900Y28375D02*
D03*
X26900D02*
D03*
X27900Y30550D02*
D03*
X26900D02*
D03*
X27900Y32725D02*
D03*
X26900D02*
D03*
X27900Y34900D02*
D03*
X26900D02*
D03*
X27900Y37075D02*
D03*
X26900D02*
D03*
X27900Y39250D02*
D03*
X26900D02*
D03*
D16*
X33700Y39450D02*
D03*
X47850Y25150D02*
D03*
D17*
X28750Y44400D02*
D03*
X32987Y40152D02*
D03*
X32286Y40864D02*
D03*
X31579Y41571D02*
D03*
X30872Y42278D02*
D03*
X30164Y42986D02*
D03*
X29457Y43693D02*
D03*
X42900Y30100D02*
D03*
X47137Y25852D02*
D03*
X46436Y26564D02*
D03*
X45729Y27271D02*
D03*
X45022Y27978D02*
D03*
X44314Y28686D02*
D03*
X43607Y29393D02*
D03*
D18*
X46550Y39550D02*
D03*
D19*
Y40550D02*
D03*
Y41550D02*
D03*
Y42550D02*
D03*
Y43550D02*
D03*
X45550Y39550D02*
D03*
Y40550D02*
D03*
Y41550D02*
D03*
Y42550D02*
D03*
Y43550D02*
D03*
D20*
X46450Y44600D02*
X48750Y42300D01*
Y26050D02*
Y42300D01*
X38350Y26227D02*
Y26650D01*
X36773Y24650D02*
X38350Y26227D01*
X36200Y24650D02*
X36773D01*
X35350Y39950D02*
Y43300D01*
X36350Y39950D02*
Y43300D01*
X37350Y39950D02*
Y43300D01*
X38350Y39950D02*
Y43300D01*
X39350Y39950D02*
Y43300D01*
X43600Y37700D02*
X46650D01*
X43600Y36700D02*
X46650D01*
X43600Y35700D02*
X46650D01*
X43600Y34700D02*
X46650D01*
X43600Y33700D02*
X46650D01*
X43600Y32700D02*
X46650D01*
X43600Y31700D02*
X46650D01*
X35350Y26650D02*
Y29450D01*
X36350Y26650D02*
Y29450D01*
X37350Y26650D02*
Y29450D01*
X38350Y26650D02*
Y29450D01*
X39350Y26650D02*
Y29450D01*
X41350Y26650D02*
Y29450D01*
X30250Y37700D02*
X33100D01*
X30250Y36700D02*
X33100D01*
X30250Y35700D02*
X33100D01*
X30250Y34700D02*
X33100D01*
X30250Y33700D02*
X33100D01*
X30250Y32700D02*
X33100D01*
X30250Y31700D02*
X33100D01*
X28700Y39250D02*
X30250Y37700D01*
X27900Y39250D02*
X28700D01*
X29550Y36700D02*
X30250D01*
X29175Y37075D02*
X29550Y36700D01*
X27900Y37075D02*
X29175D01*
X28700Y35700D02*
X30250D01*
X27900Y34900D02*
X28700Y35700D01*
X29875Y34700D02*
X30250D01*
X27900Y32725D02*
X29875Y34700D01*
X27900Y28375D02*
X28850Y29325D01*
X30250Y28550D02*
Y31700D01*
X27900Y26200D02*
X30250Y28550D01*
X27900Y30550D02*
Y31600D01*
X30000Y33700D01*
X30250D01*
X28850Y29325D02*
Y31600D01*
X29950Y32700D01*
X30250D01*
X41350Y25900D02*
Y26650D01*
Y25900D02*
X42600Y24650D01*
X39350Y25667D02*
Y26650D01*
X38333Y24650D02*
X39350Y25667D01*
X31800Y26650D02*
X35350D01*
X29800Y24650D02*
X31800Y26650D01*
X40350Y24767D02*
X40467Y24650D01*
X40350Y24767D02*
Y26650D01*
Y29450D01*
X41350Y43300D02*
X44800D01*
X45550Y42550D01*
Y40550D02*
Y41550D01*
Y42550D01*
Y43550D01*
X33700Y39450D02*
X34200Y38950D01*
X47850Y25150D02*
X48750Y26050D01*
X39350Y29450D02*
Y35500D01*
X41700Y37850D01*
X41953Y39053D02*
Y39056D01*
X42447Y39550D01*
X45550D01*
X39350Y39650D02*
Y39950D01*
X34200Y38950D02*
X40050D01*
X39350Y39650D02*
X40050Y38950D01*
X41850D01*
X41953Y39053D01*
X41350Y39950D02*
Y43300D01*
X40350Y39950D02*
Y43300D01*
X39300Y45050D02*
X40300D01*
X40350Y45000D01*
Y43300D02*
Y45000D01*
X41350Y43300D02*
Y45000D01*
X42250D01*
X42300Y45050D01*
X37300D02*
X37400Y44950D01*
X38050D01*
X39350Y43300D02*
Y43650D01*
X38050Y44950D02*
X39350Y43650D01*
X45225Y45775D02*
X46400Y44600D01*
X43100Y45775D02*
X45225D01*
D21*
X35500Y25450D02*
X36200Y26150D01*
X32650Y25450D02*
X35500D01*
X31933Y24733D02*
X32650Y25450D01*
X31933Y24650D02*
Y24733D01*
X26900Y34900D02*
Y35750D01*
X25990Y36660D02*
X26900Y35750D01*
X25990Y36660D02*
Y39827D01*
X26900Y30550D02*
Y31350D01*
X25290Y32960D02*
X26900Y31350D01*
X25290Y32960D02*
Y40117D01*
X32910Y21340D02*
X43647D01*
X30600Y23650D02*
X32910Y21340D01*
X29800Y23650D02*
X30600D01*
X34760Y21690D02*
X43502D01*
X32800Y23650D02*
X34760Y21690D01*
X31933Y23650D02*
X32800D01*
X36502Y22040D02*
X43357D01*
X34892Y23650D02*
X36502Y22040D01*
X34067Y23650D02*
X34892D01*
X41910Y23090D02*
X42922D01*
X41350Y23650D02*
X41910Y23090D01*
X40467Y23650D02*
X41350D01*
X39960Y22740D02*
X43067D01*
X39050Y23650D02*
X39960Y22740D01*
X38333Y23650D02*
X39050D01*
X38210Y22390D02*
X43212D01*
X36950Y23650D02*
X38210Y22390D01*
X36200Y23650D02*
X36950D01*
X34067Y24650D02*
X35318D01*
X36200Y26500D02*
X36350Y26650D01*
X36200Y26150D02*
Y26500D01*
X37350D02*
Y26650D01*
X35318Y24650D02*
X36168Y25500D01*
X36350D01*
X37350Y26500D01*
X26900Y39250D02*
X27018D01*
X27668Y39900D01*
X29250D01*
X30500Y38650D01*
X31486D01*
X32987Y40152D01*
X26340Y37635D02*
X26900Y37075D01*
X26340Y37635D02*
Y39682D01*
X26908Y40250D01*
X29850D01*
X32164Y40864D02*
X32286D01*
X30400Y39700D02*
X31000D01*
X29850Y40250D02*
X30400Y39700D01*
X31000D02*
X32164Y40864D01*
X25990Y39827D02*
X26763Y40600D01*
X30607D01*
X31579Y41571D01*
X29543Y40950D02*
X30872Y42278D01*
X26618Y40950D02*
X29543D01*
X25640Y39972D02*
X26618Y40950D01*
X25640Y34250D02*
Y39972D01*
Y34250D02*
X26900Y32990D01*
Y32725D02*
Y32990D01*
X25290Y40117D02*
X26473Y41300D01*
X28479D01*
X30164Y42986D01*
X27415Y41650D02*
X29457Y43693D01*
X26328Y41650D02*
X27415D01*
X24940Y40262D02*
X26328Y41650D01*
X24940Y30335D02*
Y40262D01*
Y30335D02*
X26900Y28375D01*
X42900Y25560D02*
X43250Y25210D01*
X42600Y23650D02*
X43250Y24300D01*
Y25210D01*
X42900Y25560D02*
Y30100D01*
X42922Y23090D02*
X43600Y23768D01*
Y29385D01*
X43607Y29393D01*
X43067Y22740D02*
X43950Y23623D01*
Y28321D01*
X44314Y28686D01*
X43212Y22390D02*
X44300Y23478D01*
Y27257D01*
X45022Y27978D01*
X43357Y22040D02*
X44650Y23333D01*
Y26193D01*
X45729Y27271D01*
X43502Y21690D02*
X45000Y23188D01*
Y25128D01*
X46436Y26564D01*
X43647Y21340D02*
X45350Y23043D01*
Y24064D01*
X47137Y25852D01*
X24590Y40407D02*
X28583Y44400D01*
X28750D01*
X24590Y28360D02*
Y40407D01*
Y28360D02*
X26750Y26200D01*
X26900D01*
D22*
X46550Y42323D02*
Y42550D01*
X42993Y31093D02*
X47302D01*
X41350Y29450D02*
X42993Y31093D01*
X47302D02*
X48100Y31891D01*
Y40773D01*
X46550Y42323D02*
X48100Y40773D01*
X46650Y37700D02*
X47600Y38650D01*
Y40500D01*
X46550Y41550D02*
X47600Y40500D01*
X45850Y38850D02*
X46550Y39550D01*
X41700Y37850D02*
X42700Y38850D01*
X45850D01*
D23*
X46550Y43254D02*
Y43550D01*
X46052Y42756D02*
X46550Y43254D01*
X46692Y38350D02*
X47206Y38863D01*
X40350Y29450D02*
Y35550D01*
X43150Y38350D01*
X46692D01*
X47206Y38863D02*
Y39794D01*
D24*
X46052Y40344D02*
Y42756D01*
Y40344D02*
X46349Y40048D01*
X46952D01*
X47206Y39794D01*
D25*
X38300Y45050D02*
X38353D01*
X39078Y45775D01*
X46400Y44600D02*
X46450D01*
X39078Y45775D02*
X43100D01*
M02*
