M48
;Layer_Color=9474304
;FILE_FORMAT=2:4
INCH,LZ
;TYPE=PLATED
T1F00S00C0.0300
T2F00S00C0.0354
T3F00S00C0.0433
%
T01
X04555Y03955
X04655
Y04055
Y04155
Y04255
Y04355
X04555
Y04255
Y04155
Y04055
T02
X031933Y02365
Y02465
X034067
Y02365
X0362
Y02465
X038333
Y02365
X040467
Y02465
X0426
Y02365
X0298
Y02465
X0279Y0262
X0269
Y028375
X0279
Y03055
X0269
Y032725
X0279
Y0349
X0269
Y037075
X0279
Y03925
X0269
T03
X047137Y025852
X04785Y02515
X046436Y026564
X045729Y027271
X045022Y027978
X044314Y028686
X043607Y029393
X0429Y0301
X04135Y02945
X04035
X03935
X03835
X03735
X03635
X03535
Y02665
X03635
X03735
X03835
X03935
X04035
X04135
X03025Y0317
Y0327
Y0337
Y0347
Y0357
Y0367
Y0377
X030872Y042278
X030164Y042986
X029457Y043693
X02875Y0444
X031579Y041571
X032286Y040864
X032987Y040152
X0337Y03945
X03535Y03995
X03635
X03735
X03835
X03935
X04035
X04135
Y0433
X04035
X03935
X03835
X03735
X03635
X03535
X0373Y04505
X0383
X0393
X0403
X0413
X0423
X0436Y0377
Y0367
Y0357
Y0347
Y0337
Y0327
Y0317
X04665
Y0327
Y0337
Y0347
Y0357
Y0367
Y0377
X0331
Y0367
Y0357
Y0347
Y0337
Y0327
Y0317
M30
