%FSLAX24Y24*%
%MOIN*%
G70*
G01*
G75*
G04 Layer_Physical_Order=1*
G04 Layer_Color=255*
%ADD10R,0.0720X0.1100*%
%ADD11O,0.0720X0.1100*%
%ADD12R,0.1100X0.0720*%
%ADD13O,0.1100X0.0720*%
%ADD14O,0.0900X0.0720*%
%ADD15O,0.0720X0.0900*%
G04:AMPARAMS|DCode=16|XSize=70.9mil|YSize=110.2mil|CornerRadius=0mil|HoleSize=0mil|Usage=FLASHONLY|Rotation=135.000|XOffset=0mil|YOffset=0mil|HoleType=Round|Shape=Rectangle|*
%AMROTATEDRECTD16*
4,1,4,0.0640,0.0139,-0.0139,-0.0640,-0.0640,-0.0139,0.0139,0.0640,0.0640,0.0139,0.0*
%
%ADD16ROTATEDRECTD16*%

G04:AMPARAMS|DCode=17|XSize=70.9mil|YSize=110.2mil|CornerRadius=0mil|HoleSize=0mil|Usage=FLASHONLY|Rotation=135.000|XOffset=0mil|YOffset=0mil|HoleType=Round|Shape=Round|*
%AMOVALD17*
21,1,0.0394,0.0709,0.0000,0.0000,225.0*
1,1,0.0709,0.0139,0.0139*
1,1,0.0709,-0.0139,-0.0139*
%
%ADD17OVALD17*%

%ADD18R,0.0600X0.0600*%
%ADD19C,0.0600*%
D10*
X35350Y29450D02*
D03*
Y26650D02*
D03*
Y43300D02*
D03*
X37300Y45050D02*
D03*
X41350Y39950D02*
D03*
D11*
X37350Y29450D02*
D03*
X36350D02*
D03*
X38350D02*
D03*
X39350D02*
D03*
X40350D02*
D03*
X41350D02*
D03*
Y26650D02*
D03*
X40350D02*
D03*
X39350D02*
D03*
X38350D02*
D03*
X36350D02*
D03*
X37350D02*
D03*
X41350Y43300D02*
D03*
X40350D02*
D03*
X39350D02*
D03*
X38350D02*
D03*
X36350D02*
D03*
X37350D02*
D03*
X38300Y45050D02*
D03*
X39300D02*
D03*
X40300D02*
D03*
X41300D02*
D03*
X42300D02*
D03*
X39350Y39950D02*
D03*
X40350D02*
D03*
X38350D02*
D03*
X37350D02*
D03*
X36350D02*
D03*
X35350D02*
D03*
D12*
X33100Y37700D02*
D03*
X43600Y31700D02*
D03*
X30250Y37700D02*
D03*
X46650Y31700D02*
D03*
D13*
X33100Y35700D02*
D03*
Y36700D02*
D03*
Y34700D02*
D03*
Y33700D02*
D03*
Y32700D02*
D03*
Y31700D02*
D03*
X43600Y33700D02*
D03*
Y32700D02*
D03*
Y34700D02*
D03*
Y35700D02*
D03*
Y36700D02*
D03*
Y37700D02*
D03*
X30250Y31700D02*
D03*
Y32700D02*
D03*
Y33700D02*
D03*
Y34700D02*
D03*
Y36700D02*
D03*
Y35700D02*
D03*
X46650Y37700D02*
D03*
Y36700D02*
D03*
Y35700D02*
D03*
Y34700D02*
D03*
Y32700D02*
D03*
Y33700D02*
D03*
D14*
X40467Y24650D02*
D03*
Y23650D02*
D03*
X38333Y24650D02*
D03*
Y23650D02*
D03*
X36200Y24650D02*
D03*
Y23650D02*
D03*
X34067Y24650D02*
D03*
Y23650D02*
D03*
X31933Y24650D02*
D03*
Y23650D02*
D03*
X29800Y24650D02*
D03*
Y23650D02*
D03*
X42600Y24650D02*
D03*
Y23650D02*
D03*
D15*
X27900Y26200D02*
D03*
X26900D02*
D03*
X27900Y28375D02*
D03*
X26900D02*
D03*
X27900Y30550D02*
D03*
X26900D02*
D03*
X27900Y32725D02*
D03*
X26900D02*
D03*
X27900Y34900D02*
D03*
X26900D02*
D03*
X27900Y37075D02*
D03*
X26900D02*
D03*
X27900Y39250D02*
D03*
X26900D02*
D03*
D16*
X33700Y39450D02*
D03*
X47850Y25150D02*
D03*
D17*
X28750Y44400D02*
D03*
X32987Y40152D02*
D03*
X32286Y40864D02*
D03*
X31579Y41571D02*
D03*
X30872Y42278D02*
D03*
X30164Y42986D02*
D03*
X29457Y43693D02*
D03*
X42900Y30100D02*
D03*
X47137Y25852D02*
D03*
X46436Y26564D02*
D03*
X45729Y27271D02*
D03*
X45022Y27978D02*
D03*
X44314Y28686D02*
D03*
X43607Y29393D02*
D03*
D18*
X46550Y39550D02*
D03*
D19*
Y40550D02*
D03*
Y41550D02*
D03*
Y42550D02*
D03*
Y43550D02*
D03*
X45550Y39550D02*
D03*
Y40550D02*
D03*
Y41550D02*
D03*
Y42550D02*
D03*
Y43550D02*
D03*
M02*
